<?xml version="1.0" standalone="no"?>
<!DOCTYPE svg PUBLIC "-//W3C//DTD SVG 20010904//EN"
 "http://www.w3.org/TR/2001/REC-SVG-20010904/DTD/svg10.dtd">
<svg version="1.0" xmlns="http://www.w3.org/2000/svg"
 width="225.000000pt" height="225.000000pt" viewBox="0 0 225.000000 225.000000"
 preserveAspectRatio="xMidYMid meet">
<metadata>
Created by potrace 1.14, written by Peter Selinger 2001-2017
</metadata>
<g transform="translate(0.000000,225.000000) scale(0.100000,-0.100000)"
fill="#000000" stroke="none">
<path d="M1005 2104 c-16 -3 -67 -14 -113 -24 -350 -82 -626 -356 -723 -720
-33 -125 -34 -358 -1 -480 47 -173 135 -324 261 -451 126 -126 277 -213 451
-261 72 -20 109 -23 245 -23 136 0 173 3 245 23 174 48 325 135 451 261 126
127 214 278 261 451 19 72 23 108 22 240 0 167 -16 254 -71 385 -26 63 -119
221 -136 232 -5 3 -134 -119 -287 -272 l-278 -278 -15 30 c-15 28 -75 87 -111
108 -14 8 26 52 258 285 152 151 276 278 276 282 0 10 -153 105 -216 133 -112
50 -229 76 -364 80 -69 2 -138 1 -155 -1z m-293 -568 c15 -8 92 -60 172 -115
l145 -101 -45 -43 c-25 -23 -51 -60 -59 -82 -8 -22 -19 -39 -25 -37 -16 4
-270 180 -302 210 -55 50 -41 138 25 167 41 18 56 18 89 1z"/>
</g>
</svg>
